<svg width="24" height="24" viewBox="0 0 24 24" fill="none" xmlns="http://www.w3.org/2000/svg">
<path fill-rule="evenodd" clip-rule="evenodd" d="M12 20C16.4183 20 20 16.4183 20 12C20 7.58172 16.4183 4 12 4C7.58172 4 4 7.58172 4 12C4 16.4183 7.58172 20 12 20ZM10.098 10.409C9.71505 10.409 9.39717 10.0856 9.5091 9.71937C9.80525 8.75047 10.6762 8.09651 12.0566 8.09651C13.6134 8.09651 14.6532 8.99424 14.6532 10.2442C14.6532 11.1136 14.2214 11.7215 13.4487 12.1817C12.7043 12.6136 12.4941 12.909 12.4941 13.4772C12.4941 13.6592 12.3466 13.8067 12.1646 13.8067H11.5794C11.3556 13.8067 11.1734 13.627 11.1702 13.4033C11.1191 12.5624 11.4487 12.0511 12.2327 11.5908C12.9373 11.1647 13.1759 10.8579 13.1759 10.2954C13.1759 9.6931 12.6987 9.2556 11.9827 9.2556C11.4901 9.2556 11.1155 9.45837 10.9091 9.80527C10.7265 10.112 10.455 10.409 10.098 10.409ZM12.6759 15.6704C12.6759 16.1192 12.3123 16.4772 11.8521 16.4772C11.3918 16.4772 11.0225 16.1192 11.0225 15.6704C11.0225 15.2215 11.3918 14.8692 11.8521 14.8692C12.3123 14.8692 12.6759 15.2215 12.6759 15.6704Z" fill="#EDEEF8"/>
</svg>
