<svg width="24" height="24" viewBox="0 0 24 24" fill="none" xmlns="http://www.w3.org/2000/svg">
<path fill-rule="evenodd" clip-rule="evenodd" d="M7.375 4C6.61561 4 6 4.65122 6 5.45455V18.5455C6 19.3488 6.61561 20 7.375 20H16.5C17.2594 20 17.875 19.3488 17.875 18.5455V5.45455C17.875 4.65122 17.2594 4 16.5 4H7.375ZM8.0625 6.90909C8.0625 6.50743 8.3703 6.18182 8.75 6.18182H14.25C14.6297 6.18182 14.9375 6.50743 14.9375 6.90909C14.9375 7.31075 14.6297 7.63636 14.25 7.63636H8.75C8.3703 7.63636 8.0625 7.31075 8.0625 6.90909ZM8.0625 9.81818C8.0625 9.41652 8.3703 9.09091 8.75 9.09091H12.1875C12.5672 9.09091 12.875 9.41652 12.875 9.81818C12.875 10.2198 12.5672 10.5455 12.1875 10.5455H8.75C8.3703 10.5455 8.0625 10.2198 8.0625 9.81818Z" fill="#EDEEF8"/>
</svg>
