<svg width="24" height="24" viewBox="0 0 24 24" fill="none" xmlns="http://www.w3.org/2000/svg">
<path d="M19.6247 7.76101C19.3906 7.52707 19.0119 7.52736 18.7782 7.76101C18.6381 7.90098 18.4671 8.00018 18.2447 8.07399L15.9238 5.75302C15.9977 5.5306 16.0984 5.36227 16.2389 5.22174C16.4726 4.98809 16.4729 4.60935 16.2389 4.37541C16.005 4.14147 15.6263 4.14162 15.3925 4.37541C14.7709 4.997 14.5897 5.7672 14.5549 7.19714C14.5511 7.35832 14.6124 7.51423 14.725 7.62963C14.8375 7.74507 14.992 7.81053 15.1533 7.81053H15.2087C15.5064 7.81053 15.7484 7.57031 15.7507 7.27266L16.725 8.24699C16.4379 8.25242 16.123 8.25384 15.7488 8.25051L14.5499 8.23412C13.0678 8.21075 10.8614 8.06931 9.4639 9.46667C8.54377 10.3869 8.27418 11.7583 8.21822 13.179C8.21194 13.3402 8.27156 13.4969 8.38318 13.6133C8.49496 13.7294 8.6493 13.7956 8.81059 13.7956H8.82361C9.14344 13.7956 9.40502 13.5421 9.41568 13.2224C9.42488 12.9475 9.44269 12.6794 9.47209 12.4206C9.96683 12.9154 10.9727 13.9214 11.5807 14.5294C10.8557 14.6069 10.0957 14.579 9.43117 14.569L8.23386 14.5523C5.85443 14.5282 5.14883 14.6191 4.37541 15.3925C4.14162 15.6263 4.14132 16.005 4.37541 16.239C4.6092 16.4729 4.98809 16.4728 5.22173 16.239C5.37562 16.0851 5.5331 15.9774 5.759 15.9022L8.07836 18.2214C8.00269 18.4454 7.90229 18.637 7.761 18.7782C7.52721 19.0119 7.52706 19.3907 7.761 19.6247C7.99494 19.8585 8.37368 19.8583 8.60732 19.6247C9.24675 18.9853 9.4278 17.9575 9.45952 16.7989C9.4639 16.6389 9.40341 16.484 9.2919 16.3693C9.18039 16.2546 9.02714 16.1896 8.86715 16.1896H8.79963C8.50737 16.1896 8.26966 16.4247 8.26659 16.7169L7.29783 15.7482C7.57281 15.7451 7.88553 15.746 8.25024 15.7498L9.44785 15.7662C10.9362 15.7888 13.1397 15.9297 14.5334 14.536C15.5103 13.5591 15.7485 11.8723 15.7769 10.4921C15.7839 10.1562 15.515 9.87889 15.1789 9.87889C14.8552 9.87889 14.5879 10.1369 14.5834 10.4607C14.5797 10.7109 14.5673 11.2698 14.536 11.5597C13.9134 10.9372 13.1811 10.2047 12.4448 9.46843C13.1636 9.39392 13.9137 9.42122 14.5673 9.43147L15.7653 9.44815C17.8585 9.46746 18.8585 9.37364 19.6248 8.60752C19.8583 8.37365 19.8584 7.99491 19.6247 7.76101ZM14.1995 12.9162C14.0646 13.2206 13.8966 13.4799 13.6867 13.6898C13.4701 13.9063 13.211 14.0627 12.9324 14.1884L9.80968 11.0655C9.93623 10.7819 10.0971 10.5263 10.3101 10.3133C10.5327 10.0907 10.7992 9.93014 11.0863 9.80299C12.127 10.8435 13.3263 12.043 14.1995 12.9162Z" fill="#EDEEF8"/>
</svg>
