<svg width="24" height="24" viewBox="0 0 24 24" fill="none" xmlns="http://www.w3.org/2000/svg">
<circle cx="12" cy="12" r="6.2" stroke="#EDEEF8" stroke-width="2"/>
<circle cx="12" cy="12" r="3.2" stroke="#EDEEF8" stroke-width="2"/>
<path d="M10.8 4.2C10.8 3.53726 11.3373 3 12 3C12.6628 3 13.2 3.53726 13.2 4.2V6.6H10.8V4.2Z" fill="#EDEEF8"/>
<path d="M13.2 19.8C13.2 20.4627 12.6627 21 12 21C11.3372 21 10.8 20.4627 10.8 19.8L10.8 17.4L13.2 17.4L13.2 19.8Z" fill="#EDEEF8"/>
<path d="M19.8 10.8C20.4627 10.8 21 11.3373 21 12C21 12.6628 20.4627 13.2 19.8 13.2L17.4 13.2L17.4 10.8L19.8 10.8Z" fill="#EDEEF8"/>
<path d="M4.2 13.2C3.53726 13.2 3 12.6627 3 12C3 11.3372 3.53726 10.8 4.2 10.8L6.6 10.8L6.6 13.2L4.2 13.2Z" fill="#EDEEF8"/>
<circle cx="12" cy="12" r="1.2" fill="#EDEEF8"/>
</svg>
