<svg width="24" height="24" viewBox="0 0 24 24" fill="none" xmlns="http://www.w3.org/2000/svg">
<path fill-rule="evenodd" clip-rule="evenodd" d="M8 6C6.89543 6 6 6.89543 6 8V16C6 17.1046 6.89543 18 8 18L16 18C17.1046 18 18 17.1046 18 16V8C18 6.89543 17.1046 6 16 6H8ZM10.5 13.6367C10.2239 13.6367 10 13.8606 10 14.1367V15.3185C10 15.5947 10.2239 15.8185 10.5 15.8185C10.7761 15.8185 11 15.5947 11 15.3185V14.1367C11 13.8606 10.7761 13.6367 10.5 13.6367ZM12 11.9541C12 11.678 12.2239 11.4541 12.5 11.4541C12.7761 11.4541 13 11.678 13 11.9541V15.3177C13 15.5939 12.7761 15.8177 12.5 15.8177C12.2239 15.8177 12 15.5939 12 15.3177V11.9541ZM14.5 9.27246C14.2239 9.27246 14 9.49632 14 9.77246V15.3179C14 15.5941 14.2239 15.8179 14.5 15.8179C14.7761 15.8179 15 15.5941 15 15.3179V9.77246C15 9.49632 14.7761 9.27246 14.5 9.27246Z" fill="#EDEEF8"/>
</svg>
