<svg width="32" height="32" viewBox="0 0 32 32" fill="none" xmlns="http://www.w3.org/2000/svg">
<path d="M6.41166 15.474H4V23.2258H6.41166V15.474Z" fill="#9FA5D7"/>
<path d="M10.0282 18.9198H7.61658V23.2263H10.0282V18.9198Z" fill="#9FA5D7"/>
<path d="M13.4753 17.1969H11.0636V23.0538H13.4753V17.1969Z" fill="#9FA5D7"/>
<path d="M17.2636 13.5792H14.8519V23.0536H17.2636V13.5792Z" fill="#9FA5D7"/>
<path d="M20.8826 10.4789H18.4709V23.054H20.8826V10.4789Z" fill="#9FA5D7"/>
<path d="M24.4991 6H22.0874V23.0539H24.4991V6Z" fill="#9FA5D7"/>
<path d="M28.118 12.0293H25.7063V23.2263H28.118V12.0293Z" fill="#9FA5D7"/>
<path d="M4.86171 25.5269V24.3866C4.85866 24.3217 4.83165 24.2603 4.78591 24.2143C4.73987 24.1694 4.67793 24.1447 4.61365 24.1454C4.58173 24.1443 4.54994 24.1499 4.52029 24.1618C4.49064 24.1736 4.46378 24.1915 4.44139 24.2143C4.397 24.2606 4.37231 24.3224 4.37249 24.3866V27.7457C4.37184 27.7775 4.3776 27.8092 4.38944 27.8388C4.40128 27.8684 4.41894 27.8953 4.44139 27.9179C4.48743 27.9628 4.54938 27.9875 4.61365 27.9868C4.64554 27.9877 4.67727 27.982 4.70689 27.9701C4.73652 27.9583 4.7634 27.9405 4.78591 27.9179C4.8303 27.8716 4.855 27.8098 4.85482 27.7457V27.6526C5.02163 27.8479 5.25733 27.9713 5.51286 27.9972H5.928C6.01566 27.992 6.10156 27.9703 6.18123 27.9334C6.26633 27.902 6.34467 27.8546 6.41206 27.7939L6.6205 27.5958C6.68022 27.5348 6.72555 27.4612 6.75314 27.3805C6.79008 27.292 6.80939 27.1972 6.80998 27.1014V26.1178C6.80826 26.0119 6.78664 25.9073 6.74625 25.8094C6.71417 25.7185 6.66104 25.6365 6.59121 25.57L6.36038 25.3719C6.24276 25.2626 6.08856 25.2012 5.928 25.1996H5.49907C5.34453 25.2055 5.19723 25.2666 5.08392 25.3719L4.86171 25.5269ZM5.55937 25.6837H5.89528C5.95829 25.6846 6.01909 25.7071 6.06754 25.7474L6.2398 25.8921C6.26605 25.9151 6.28657 25.9439 6.29973 25.9762C6.31289 26.0085 6.31832 26.0434 6.31559 26.0782V27.1031C6.3174 27.1345 6.31142 27.1659 6.2982 27.1944C6.28498 27.223 6.26492 27.2478 6.2398 27.2668L6.04859 27.439C6.00861 27.4739 5.95692 27.4924 5.90389 27.4907H5.52147C5.45648 27.4883 5.39486 27.4612 5.34921 27.4149L4.96334 27.0824C4.93233 27.0594 4.90703 27.0296 4.88941 26.9953C4.87178 26.9609 4.86231 26.923 4.86171 26.8843V26.3366C4.85793 26.295 4.86321 26.2532 4.87719 26.214C4.89117 26.1747 4.91351 26.1389 4.94267 26.1092L5.37849 25.7371C5.4333 25.6975 5.50064 25.6791 5.56798 25.6854L5.55937 25.6837Z" fill="#9FA5D7"/>
<path d="M9.13317 23.9323H8.88511C8.82088 23.9334 8.75941 23.9586 8.71285 24.0029C8.66847 24.0492 8.64377 24.111 8.64395 24.1751V24.3905C8.6434 24.4547 8.66815 24.5166 8.71285 24.5627C8.73412 24.5874 8.76062 24.607 8.79042 24.6201C8.82022 24.6332 8.85257 24.6395 8.88511 24.6385H9.13317C9.19836 24.6372 9.26039 24.6102 9.30585 24.5635C9.3513 24.5167 9.37653 24.4539 9.37606 24.3887V24.1786C9.37671 24.1467 9.37094 24.115 9.35911 24.0855C9.34727 24.0559 9.3296 24.029 9.30715 24.0063C9.28458 23.983 9.25755 23.9644 9.22767 23.9517C9.19778 23.9389 9.16565 23.9323 9.13317 23.9323ZM8.39417 27.9856H9.85667C9.91904 27.986 9.97973 27.9653 10.0289 27.927C10.0733 27.8806 10.098 27.8189 10.0978 27.7547C10.0973 27.7224 10.0903 27.6905 10.0773 27.661C10.0643 27.6314 10.0455 27.6047 10.022 27.5825C9.99968 27.5595 9.97285 27.5415 9.94322 27.5293C9.9136 27.5172 9.88179 27.5112 9.84978 27.5118H9.36745V25.4447C9.36809 25.4128 9.36233 25.3812 9.35049 25.3516C9.33866 25.322 9.32099 25.2951 9.29854 25.2724C9.2769 25.2482 9.25033 25.229 9.22062 25.2159C9.19091 25.2028 9.15874 25.1963 9.12628 25.1966H8.40106C8.33587 25.198 8.27384 25.225 8.22838 25.2717C8.18293 25.3185 8.1577 25.3812 8.15817 25.4464C8.15732 25.4783 8.163 25.51 8.17484 25.5397C8.18669 25.5693 8.20447 25.5962 8.22708 25.6187C8.24973 25.6412 8.27661 25.659 8.30617 25.6712C8.33573 25.6833 8.36739 25.6895 8.39934 25.6893H8.88339V27.4998H8.39417C8.36295 27.4991 8.3319 27.5046 8.3028 27.5159C8.27369 27.5272 8.2471 27.5441 8.22455 27.5657C8.20199 27.5873 8.18391 27.6132 8.17134 27.6417C8.15877 27.6703 8.15195 27.7011 8.15128 27.7323C8.15073 27.7642 8.15654 27.7958 8.16837 27.8254C8.1802 27.855 8.19782 27.8819 8.22019 27.9046C8.24217 27.9292 8.26893 27.9491 8.29884 27.963C8.32876 27.9769 8.36119 27.9846 8.39417 27.9856Z" fill="#9FA5D7"/>
<path d="M13.8932 27.1V26.075C13.8897 25.9593 13.8611 25.8458 13.8093 25.7423C13.7576 25.6388 13.6839 25.5477 13.5934 25.4756C13.5109 25.3901 13.4122 25.3219 13.3031 25.2749C13.194 25.2278 13.0766 25.203 12.9578 25.2017H12.3997C12.2786 25.203 12.159 25.2284 12.0478 25.2763C11.9367 25.3242 11.8361 25.3937 11.752 25.4807C11.664 25.5547 11.5923 25.6463 11.5416 25.7495C11.4909 25.8527 11.4622 25.9653 11.4574 26.0802V27.1051C11.4629 27.2211 11.4932 27.3346 11.546 27.438C11.5989 27.5413 11.6732 27.6322 11.764 27.7046C11.929 27.8764 12.1547 27.9766 12.3928 27.9837H12.9578C13.1959 27.9747 13.4215 27.8748 13.5883 27.7046C13.6789 27.6311 13.7529 27.5392 13.8055 27.4349C13.858 27.3307 13.8879 27.2166 13.8932 27.1ZM11.9483 27.0776V26.094C11.9474 26.0577 11.9546 26.0216 11.9695 25.9885C11.9844 25.9554 12.0066 25.9261 12.0345 25.9028L12.1964 25.7632C12.269 25.7084 12.3589 25.6815 12.4496 25.6874H12.9457C13.0191 25.6868 13.0904 25.7118 13.1473 25.7581L13.3195 25.8924C13.3497 25.9191 13.3732 25.9525 13.3881 25.9899C13.4031 26.0273 13.4091 26.0676 13.4057 26.1078V27.0914C13.4076 27.128 13.4008 27.1646 13.3858 27.1982C13.3708 27.2317 13.3481 27.2612 13.3195 27.2843L13.1748 27.4118C13.1127 27.4674 13.0326 27.4986 12.9492 27.4996H12.3876C12.3258 27.5042 12.2644 27.4858 12.2153 27.4479L12.0431 27.2912C12.0117 27.2655 11.9869 27.2328 11.9707 27.1956C11.9546 27.1585 11.9475 27.118 11.9501 27.0776H11.9483Z" fill="#9FA5D7"/>
<path d="M16.9521 24.3925V25.5398L16.7799 25.4003C16.6396 25.2694 16.4549 25.1968 16.2631 25.197H15.9186C15.7359 25.1957 15.5592 25.262 15.4224 25.383L15.2261 25.5553C15.1546 25.619 15.0991 25.6987 15.0641 25.7878C15.0188 25.8886 14.9953 25.9978 14.9952 26.1083V27.0988C14.9988 27.1988 15.0203 27.2975 15.059 27.3899C15.0898 27.4707 15.1347 27.5453 15.1916 27.6104L15.3932 27.7826C15.5256 27.9112 15.7013 27.9856 15.8858 27.9911H16.2993C16.5549 27.9656 16.7907 27.8421 16.9573 27.6465V27.7568C16.9566 27.7887 16.9624 27.8203 16.9742 27.8499C16.9861 27.8795 17.0038 27.9064 17.0262 27.9291C17.0486 27.952 17.0754 27.9701 17.105 27.9822C17.1346 27.9944 17.1664 28.0003 17.1985 27.9997C17.2307 28.0019 17.263 27.9967 17.2928 27.9845C17.3227 27.9722 17.3494 27.9533 17.3707 27.9291C17.4151 27.8827 17.4398 27.821 17.4396 27.7568V24.3977C17.4391 24.3654 17.4321 24.3335 17.4191 24.3039C17.4061 24.2743 17.3873 24.2477 17.3638 24.2254C17.3415 24.2024 17.3147 24.1843 17.2851 24.1721C17.2554 24.16 17.2236 24.1541 17.1916 24.1548C17.1594 24.1526 17.1271 24.1578 17.0972 24.17C17.0673 24.1823 17.0407 24.2012 17.0193 24.2254C16.9768 24.2708 16.9528 24.3304 16.9521 24.3925ZM15.9186 25.6845H16.2476C16.3203 25.6806 16.3919 25.7032 16.4491 25.7482L16.8419 26.0927C16.8756 26.1271 16.9018 26.1682 16.9187 26.2133C16.9356 26.2584 16.9429 26.3065 16.9401 26.3546V26.8714C16.9408 26.9111 16.9329 26.9504 16.9168 26.9867C16.9008 27.0231 16.8769 27.0554 16.847 27.0815L16.4664 27.4019C16.4166 27.4512 16.3516 27.4822 16.282 27.4898H15.8858C15.8279 27.4892 15.7724 27.4664 15.7308 27.426L15.5758 27.2917C15.5482 27.2719 15.5255 27.2461 15.5094 27.2163C15.4933 27.1864 15.4842 27.1533 15.4827 27.1194V26.0859C15.482 26.0508 15.4889 26.0161 15.5029 25.984C15.5168 25.9519 15.5376 25.9232 15.5637 25.8998L15.7187 25.7655C15.7444 25.7401 15.7748 25.72 15.8082 25.7064C15.8416 25.6928 15.8773 25.686 15.9134 25.6862L15.9186 25.6845Z" fill="#9FA5D7"/>
<path d="M20.2245 26.2394H19.2788C19.1835 26.2365 19.0888 26.2542 19.0011 26.2914C18.9134 26.3285 18.8347 26.3843 18.7706 26.4547C18.7015 26.5216 18.6469 26.6021 18.6102 26.6909C18.5734 26.7798 18.5553 26.8753 18.557 26.9715V27.2574C18.5568 27.3536 18.5755 27.4488 18.6121 27.5377C18.6486 27.6267 18.7024 27.7075 18.7702 27.7756C18.838 27.8438 18.9186 27.8979 19.0073 27.9349C19.0961 27.9719 19.1912 27.9911 19.2874 27.9913H20.1022L20.5122 27.7467C20.5115 27.7785 20.5173 27.8102 20.5291 27.8398C20.5409 27.8694 20.5586 27.8963 20.5811 27.9189C20.6034 27.9419 20.6302 27.9601 20.6598 27.9722C20.6895 27.9844 20.7213 27.9903 20.7533 27.9896C20.7854 27.9905 20.8173 27.9847 20.8469 27.9725C20.8766 27.9604 20.9034 27.9421 20.9256 27.9189C20.97 27.8726 20.9947 27.8108 20.9945 27.7467L20.9342 25.931C20.9313 25.7369 20.8528 25.5515 20.7154 25.4143C20.6497 25.3462 20.5706 25.2924 20.4832 25.2563C20.3958 25.2201 20.3018 25.2024 20.2073 25.2041H19.2891C19.2571 25.2035 19.2253 25.2094 19.1957 25.2216C19.166 25.2337 19.1392 25.2518 19.1168 25.2747C19.0725 25.3211 19.0478 25.3828 19.0479 25.447C19.0471 25.4789 19.0528 25.5106 19.0646 25.5402C19.0765 25.5698 19.0942 25.5967 19.1168 25.6192C19.139 25.6424 19.1658 25.6607 19.1955 25.6728C19.2251 25.685 19.257 25.6908 19.2891 25.6899H20.1935C20.2255 25.6891 20.2573 25.695 20.287 25.7072C20.3166 25.7193 20.3434 25.7375 20.3657 25.7605C20.4101 25.8068 20.4348 25.8686 20.4346 25.9328V26.2773C20.366 26.2576 20.2956 26.2449 20.2245 26.2394ZM20.4674 26.9784L20.4794 27.1817L19.9626 27.49H19.2736C19.2415 27.4909 19.2096 27.4851 19.18 27.473C19.1503 27.4608 19.1235 27.4425 19.1013 27.4194C19.0787 27.3969 19.061 27.37 19.0491 27.3404C19.0373 27.3107 19.0316 27.279 19.0324 27.2471V26.9732C19.0318 26.9414 19.0375 26.9097 19.0494 26.8801C19.0612 26.8505 19.0789 26.8236 19.1013 26.801C19.1474 26.7561 19.2093 26.7313 19.2736 26.7321H20.2262C20.2581 26.731 20.2899 26.7366 20.3196 26.7484C20.3492 26.7603 20.3761 26.7782 20.3985 26.801C20.4216 26.8242 20.4396 26.8519 20.4514 26.8825C20.4633 26.913 20.4687 26.9457 20.4674 26.9784Z" fill="#9FA5D7"/>
<path d="M23.7945 27.991H23.3156C23.1229 27.9896 22.9385 27.9124 22.8024 27.7759C22.6664 27.6395 22.5895 27.455 22.5886 27.2623V25.6844H22.3406C22.3086 25.6845 22.277 25.6784 22.2474 25.6662C22.2179 25.6541 22.191 25.6363 22.1683 25.6138C22.1459 25.5911 22.1282 25.5642 22.1164 25.5346C22.1045 25.505 22.0988 25.4734 22.0994 25.4415C22.0992 25.3773 22.1239 25.3156 22.1683 25.2692C22.1907 25.2463 22.2175 25.2282 22.2471 25.2161C22.2768 25.2039 22.3086 25.198 22.3406 25.1986H22.5938V24.6043C22.5936 24.5401 22.6183 24.4784 22.6627 24.4321C22.6851 24.4091 22.7119 24.391 22.7415 24.3789C22.7712 24.3667 22.803 24.3608 22.835 24.3614C22.867 24.3605 22.8989 24.3663 22.9286 24.3785C22.9583 24.3906 22.9851 24.4089 23.0072 24.4321C23.0305 24.4543 23.0491 24.481 23.0618 24.5106C23.0746 24.5402 23.0812 24.5721 23.0813 24.6043V25.2038H24.0511C24.0832 25.203 24.115 25.2088 24.1447 25.221C24.1744 25.2331 24.2012 25.2513 24.2234 25.2744C24.246 25.2969 24.2638 25.3238 24.2756 25.3534C24.2875 25.3831 24.2931 25.4148 24.2923 25.4467C24.2925 25.5108 24.2678 25.5726 24.2234 25.6189C24.2019 25.6428 24.1751 25.6615 24.1453 25.6734C24.1154 25.6854 24.0832 25.6903 24.0511 25.6878H23.0761V27.2658C23.0749 27.2982 23.081 27.3304 23.0938 27.3602C23.1066 27.39 23.1259 27.4166 23.1502 27.438C23.1726 27.4609 23.1994 27.479 23.229 27.4912C23.2587 27.5033 23.2905 27.5093 23.3225 27.5086H23.7893C23.8497 27.5099 23.9086 27.4893 23.9551 27.4507C24.0016 27.4121 24.0326 27.3581 24.0425 27.2985C24.0508 27.24 24.08 27.1866 24.1246 27.148C24.1693 27.1093 24.2264 27.0882 24.2854 27.0883C24.3174 27.0877 24.3492 27.0936 24.3789 27.1058C24.4085 27.1179 24.4353 27.136 24.4577 27.159C24.5025 27.205 24.5273 27.2669 24.5266 27.3312C24.5169 27.4987 24.4421 27.6557 24.3181 27.7688C24.2521 27.8415 24.1711 27.899 24.0807 27.9374C23.9903 27.9757 23.8926 27.994 23.7945 27.991Z" fill="#9FA5D7"/>
<path d="M27.3142 26.2388H26.3685C26.2733 26.2359 26.1785 26.2536 26.0908 26.2908C26.0031 26.3279 25.9244 26.3837 25.8603 26.4541C25.7912 26.5211 25.7366 26.6015 25.6999 26.6903C25.6632 26.7792 25.6451 26.8747 25.6467 26.9709V27.2569C25.6465 27.353 25.6652 27.4482 25.7018 27.5372C25.7384 27.6261 25.7921 27.7069 25.8599 27.775C25.9277 27.8432 26.0083 27.8973 26.0971 27.9343C26.1858 27.9713 26.281 27.9905 26.3771 27.9907H27.1919L27.6019 27.7461C27.6012 27.7779 27.607 27.8096 27.6188 27.8392C27.6307 27.8688 27.6483 27.8957 27.6708 27.9183C27.6931 27.9413 27.7199 27.9595 27.7495 27.9716C27.7792 27.9838 27.811 27.9897 27.843 27.989C27.8751 27.9899 27.907 27.9841 27.9367 27.9719C27.9663 27.9598 27.9931 27.9415 28.0153 27.9183C28.0597 27.872 28.0844 27.8102 28.0842 27.7461L28.0274 25.9287C28.0245 25.7345 27.946 25.5491 27.8086 25.4119C27.7429 25.3439 27.6638 25.2901 27.5764 25.254C27.4889 25.2178 27.395 25.2 27.3004 25.2018H26.384C26.352 25.2012 26.3202 25.2071 26.2905 25.2192C26.2609 25.2314 26.2341 25.2495 26.2117 25.2724C26.1673 25.3187 26.1426 25.3805 26.1428 25.4447C26.142 25.4766 26.1476 25.5083 26.1595 25.5379C26.1713 25.5675 26.1891 25.5944 26.2117 25.6169C26.2339 25.6401 26.2607 25.6584 26.2904 25.6705C26.32 25.6827 26.3519 25.6885 26.384 25.6876H27.3021C27.3342 25.6869 27.366 25.6929 27.3956 25.705C27.4252 25.7172 27.452 25.7353 27.4744 25.7582C27.5188 25.8045 27.5435 25.8663 27.5433 25.9304V26.275C27.4685 26.2546 27.3917 26.2425 27.3142 26.2388ZM27.5623 26.9778L27.5743 27.1811L27.0575 27.4894H26.3685C26.3364 27.4903 26.3045 27.4845 26.2749 27.4724C26.2452 27.4602 26.2184 27.442 26.1962 27.4188C26.1736 27.3963 26.1558 27.3694 26.144 27.3398C26.1321 27.3101 26.1265 27.2784 26.1273 27.2465V26.9726C26.1267 26.9408 26.1324 26.9091 26.1443 26.8795C26.1561 26.8499 26.1738 26.823 26.1962 26.8004C26.2423 26.7555 26.3042 26.7307 26.3685 26.7315H27.3211C27.353 26.7304 27.3848 26.736 27.4144 26.7478C27.4441 26.7597 27.471 26.7776 27.4934 26.8004C27.5164 26.8236 27.5345 26.8513 27.5463 26.8819C27.5582 26.9124 27.5636 26.9451 27.5623 26.9778Z" fill="#9FA5D7"/>
</svg>
