<svg width="24" height="24" viewBox="0 0 24 24" fill="none" xmlns="http://www.w3.org/2000/svg">
<path fill-rule="evenodd" clip-rule="evenodd" d="M6.29289 10.01C6.10536 10.1976 6 10.4519 6 10.7171V16.7029C6 17.8075 6.89543 18.7029 8 18.7029H9.7C9.97614 18.7029 10.2 18.4791 10.2 18.2029V14.3029C10.2 13.7506 10.6477 13.3029 11.2 13.3029H12.8C13.3523 13.3029 13.8 13.7506 13.8 14.3029V18.2029C13.8 18.4791 14.0239 18.7029 14.3 18.7029H16C17.1046 18.7029 18 17.8075 18 16.7029V10.7171C18 10.4519 17.8946 10.1976 17.7071 10.01L13.4142 5.71713C12.6332 4.93609 11.3668 4.93609 10.5858 5.71713L6.29289 10.01Z" fill="white"/>
</svg>
