<svg width="24" height="24" viewBox="0 0 24 24" fill="none" xmlns="http://www.w3.org/2000/svg">
<path fill-rule="evenodd" clip-rule="evenodd" d="M13.0271 7.11278C11.6859 7.80758 10.9179 7.16358 10.9179 7.16358C10.9179 7.16358 10.4819 6.12358 11.2871 5.26678C11.6875 4.84136 12.168 4.69023 12.675 4.53075C13.0443 4.41463 13.4276 4.29408 13.8043 4.05998C14.4415 3.66398 14.4167 3.59998 14.4167 3.59998C14.4167 3.59998 15.0523 6.06398 13.0271 7.11278ZM11.5877 8.24955C11.8486 8.37694 12.1514 8.37694 12.4123 8.24955C14.7949 7.08811 17.9996 8.16961 18 11.5809C18 14.2451 16.0069 18.347 13.3611 18.5938C13.0701 18.6208 12.7842 18.516 12.4878 18.3857C12.1971 18.2576 11.864 18.2558 11.5719 18.3806C11.267 18.5109 10.9635 18.6193 10.6799 18.5971C8.0136 18.389 6 14.2586 6 11.5806C6 8.16961 9.20508 7.08811 11.5877 8.24955Z" fill="#EDEEF8"/>
</svg>
