<svg width="24" height="24" viewBox="0 0 24 24" fill="none" xmlns="http://www.w3.org/2000/svg">
<path fill-rule="evenodd" clip-rule="evenodd" d="M17.9523 10.3154L14.5582 13.7095L10.7398 9.89115L13.9119 6.71902L13.9217 6.7092L13.9315 6.69943L14.1339 6.49703L14.1456 6.50867C15.2057 5.65966 16.7574 5.72651 17.7401 6.7092C18.7228 7.69189 18.7896 9.24362 17.9406 10.3037L17.9523 10.3154ZM6.49754 14.1338L9.89165 10.7397L13.71 14.558L10.5664 17.7017C10.5538 17.7148 10.5411 17.7278 10.5282 17.7406C10.5153 17.7535 10.5023 17.7662 10.4893 17.7788L10.3159 17.9522L10.3047 17.9409C9.24455 18.7902 7.69261 18.7234 6.70982 17.7406C5.72702 16.7578 5.66027 15.2059 6.50954 14.1458L6.49754 14.1338Z" fill="#EDEEF8"/>
</svg>
